<?xml version="1.0" encoding="UTF-8"?>
<svg id="_レイヤー_1" data-name="レイヤー_1" xmlns="http://www.w3.org/2000/svg" version="1.1" viewBox="0 0 1920 1080">
  <!-- Generator: Adobe Illustrator 30.0.0, SVG Export Plug-In . SVG Version: 2.1.1 Build 123)  -->
  <defs>
    <style>
      .st0 {
        fill: #fff;
      }
    </style>
  </defs>
  <g>
    <g>
      <path class="st0" d="M887.62,560.24h-9.07l-13.58-13.58v-27.27l13.58-13.58h9.07v54.43ZM891.2,538.4v-9.48h11.94v-9.53h-11.94v-13.58h19.22l13.58,13.58v19.01h-32.8ZM891.2,560.24v-12.71h30.45v5.89l-6.77,6.82h-23.68Z"/>
      <path class="st0" d="M924.35,560.24l21.68-31.68,12.15,18.45-7.94,13.22h-25.88ZM995.8,560.24h-24.7l-45.36-68.02h24.45l45.62,68.02ZM974.68,522.97l-12.1-17.68,7.95-13.07h24.29l-20.14,30.75Z"/>
      <path class="st0" d="M1019.42,550.24h10.04v9.99h-23.32l-9.43-11.22v-4.36h22.71v5.59ZM1009.01,505.8h9.07v19.22h25.83l11.79,11.89v10.61l-12.66,12.71h-9.99v-20.55h-24.5l-11.79-11.33v-10.35l12.25-12.2ZM1033.05,515.8h-11.38v-9.99h24.09l8.1,8.1v6.15h-20.81v-4.25Z"/>
    </g>
    <path class="st0" d="M884.07,578.29c-1.85-.56-3.06-1.02-3.06-2.3,0-.89.65-1.84,2.08-1.84,1.23,0,2.03.76,2.3,1.43l2.64-.29c0-2.01-2.22-3.64-4.94-3.64s-4.91,1.87-4.91,4.34c0,3.08,2.53,3.87,4.38,4.44,1.58.5,2.64,1.09,2.64,2.33,0,.88-.75,1.81-2.14,1.81-1.76,0-2.3-1.26-2.45-1.64l-2.6.42c0,2.03,2.32,3.75,5.06,3.75s5.06-1.97,5.06-4.4c0-2.94-2.31-3.93-4.05-4.42Z"/>
    <polygon class="st0" points="917.73 571.93 912.63 571.93 912.63 568.27 909.71 568.27 909.71 571.93 906.99 571.93 906.99 574.52 909.71 574.52 909.7 587.11 912.62 587.11 912.63 574.52 917.73 574.52 917.73 571.93"/>
    <polygon class="st0" points="1043.44 571.93 1038.32 571.93 1038.32 568.26 1035.41 568.26 1035.41 571.93 1032.71 571.93 1032.71 574.52 1035.4 574.52 1035.39 587.1 1038.31 587.1 1038.32 574.52 1043.44 574.52 1043.44 571.93"/>
    <path class="st0" d="M944.31,571.65c-3.88,0-6.48,2.55-6.48,6.35v9.06h2.92v-9.06c0-2.35,1.33-3.76,3.56-3.76,0,0,.99,0,.99,0v-2.59s-.98,0-.99,0Z"/>
    <path class="st0" d="M1011.24,582.91c-.7.74-1.94,1.62-3.84,1.62-2.97,0-5.29-2.26-5.29-5.14s2.32-5.14,5.29-5.14c.94,0,1.86.26,2.53.69l-4.52,4.97,2.08,1.71,5.38-6.01c.32-.33.46-.64.46-1.02s-.2-.78-.54-1.06c-1.38-1.19-3.35-1.87-5.4-1.87-4.62,0-8.24,3.4-8.24,7.73s3.62,7.73,8.24,7.73c2.41,0,4.63-.93,6.08-2.54,0,0-2.1-1.8-2.24-1.67Z"/>
    <path class="st0" d="M976.81,582.91c-.7.74-1.94,1.62-3.84,1.62-2.97,0-5.29-2.26-5.29-5.14s2.32-5.14,5.29-5.14c.94,0,1.86.26,2.53.69l-4.52,4.97,2.08,1.71,5.38-6.01c.32-.33.46-.64.46-1.02s-.2-.78-.54-1.06c-1.38-1.19-3.35-1.87-5.4-1.87-4.62,0-8.24,3.4-8.24,7.73s3.62,7.73,8.24,7.73c2.41,0,4.63-.93,6.08-2.54,0,0-2.1-1.8-2.24-1.67Z"/>
  </g>
  <g>
    <g>
      <path class="st0" d="M305.75,725.07h-81.63l-122.19-122.19v-245.33l122.19-122.19h81.63v489.72ZM338.03,528.61v-85.3h107.44v-85.77h-107.44v-122.19h172.92l122.22,122.19v171.07h-295.14ZM338.03,725.07v-114.36h273.92v53.02l-60.88,61.33h-213.03Z"/>
      <path class="st0" d="M636.29,725.07l195.06-285,109.29,166.03-71.47,118.97h-232.88ZM1279.11,725.07h-222.27L648.74,113.13h219.95l410.42,611.94ZM1089.12,389.82l-108.84-159.09,71.49-117.6h218.58l-181.23,276.69Z"/>
      <path class="st0" d="M1491.6,635.15h90.37v89.92h-209.81l-84.85-100.98v-39.22h204.3v50.27ZM1397.99,235.34h81.61v172.92h232.41l106.07,106.99v95.46l-113.91,114.36h-89.92v-184.92h-220.42l-106.04-101.9v-93.16l110.21-109.74ZM1614.25,325.26h-102.37v-89.92h216.75l72.84,72.87v55.32h-187.22v-38.27Z"/>
    </g>
    <path class="st0" d="M273.88,887.53c-16.61-5-27.52-9.14-27.52-20.7,0-7.96,5.87-16.54,18.72-16.54,11.04,0,18.26,6.83,20.68,12.83l23.76-2.64c0-18.05-19.93-32.74-44.43-32.74s-44.17,16.81-44.17,39.09c0,27.74,22.77,34.82,39.4,39.99,14.25,4.52,23.76,9.81,23.76,20.96,0,7.9-6.75,16.29-19.27,16.29-15.79,0-20.71-11.34-22.08-14.72l-23.43,3.76c0,18.29,20.83,33.75,45.51,33.75s45.53-17.76,45.53-39.59c0-26.44-20.81-35.35-36.45-39.75Z"/>
    <polygon class="st0" points="576.73 830.28 530.82 830.28 530.82 797.34 504.56 797.34 504.56 830.28 480.07 830.28 480.07 853.59 504.53 853.59 504.42 966.82 530.69 966.82 530.82 853.59 576.73 853.59 576.73 830.28"/>
    <polygon class="st0" points="1707.71 830.28 1661.7 830.28 1661.7 797.27 1635.43 797.27 1635.43 830.28 1611.18 830.28 1611.18 853.59 1635.41 853.59 1635.3 966.73 1661.57 966.73 1661.7 853.59 1707.71 853.59 1707.71 830.28"/>
    <path class="st0" d="M815.8,827.74c-34.89,0-58.33,22.95-58.33,57.11v81.51h26.26v-81.51c0-21.17,11.99-33.81,32.07-33.81.06,0,8.93,0,8.93,0l.05-23.29s-8.89,0-8.97,0Z"/>
    <path class="st0" d="M1417.98,929.03c-6.31,6.63-17.42,14.54-34.58,14.54-26.68,0-47.58-20.31-47.58-46.26s20.9-46.26,47.58-46.26c8.45,0,16.76,2.3,22.77,6.22l-40.65,44.74,18.74,15.34,48.41-54.05c2.86-2.96,4.14-5.8,4.14-9.18s-1.76-7.02-4.84-9.58c-12.41-10.68-30.11-16.81-48.57-16.81-41.55,0-74.11,30.55-74.11,69.56s32.55,69.56,74.11,69.56c21.71,0,41.66-8.33,54.73-22.81,0,0-18.93-16.17-20.15-15.03Z"/>
    <path class="st0" d="M1108.28,929.03c-6.31,6.63-17.42,14.54-34.58,14.54-26.68,0-47.58-20.31-47.58-46.26s20.9-46.26,47.58-46.26c8.45,0,16.76,2.3,22.77,6.22l-40.65,44.74,18.74,15.34,48.41-54.05c2.86-2.96,4.14-5.8,4.14-9.18s-1.76-7.02-4.84-9.58c-12.41-10.68-30.11-16.81-48.57-16.81-41.55,0-74.11,30.55-74.11,69.56s32.55,69.56,74.11,69.56c21.71,0,41.66-8.33,54.73-22.81,0,0-18.93-16.17-20.15-15.03Z"/>
  </g>
</svg>